FILE "Yumimi Mix Remix (Japan) (En) (v1.0) (Supper).bin" BINARY
  TRACK 01 MODE1/2352
    INDEX 01 00:00:00
  TRACK 02 AUDIO
    INDEX 00 29:59:67
    INDEX 01 30:01:67
  TRACK 03 AUDIO
    INDEX 00 31:58:57
    INDEX 01 32:00:57
  TRACK 04 AUDIO
    INDEX 00 35:18:09
    INDEX 01 35:20:09
